name new_emg_signals
nRows=45
nColumns=7
 
endheader
time	LGLTMED	LRF	LADDLONG	LBF	LTA	LGM
1.7199999999999616	0.2949790846749538	0.4436167687784846	0.938953875229518	0.995028558631848	0.8735523023437816	0.8844427792481455
1.7299999999999631	0.2963630287646013	0.4435275688883855	0.9382345866130692	0.9933548534545632	0.8680882976726148	0.879127046411883
1.7399999999999611	0.2978951027559881	0.4433827268671559	0.9374591083904142	0.9914389015348324	0.8625528855933811	0.8737416852715857
1.7499999999999627	0.2995682555680397	0.4431814035826217	0.9366267696976918	0.9892814564464316	0.856951755026476	0.8682924671182953
1.7599999999999607	0.3013753825406453	0.4429229761823278	0.9357369956539028	0.986883731051066	0.85129080323708	0.8627853332277177
1.7699999999999623	0.3033093386622928	0.4426070354435817	0.93478930896194	0.9842473926381796	0.8455761292687062	0.8572263875883
1.7799999999999603	0.3053629516924941	0.4422333825690084	0.9337833313588296	0.9813745570126864	0.8398140269477937	0.8516218893095363
1.7899999999999618	0.3075290351587868	0.4418020254468776	0.9327187849025153	0.9782677815539298	0.8340109774506415	0.8459782447090525
1.7999999999999599	0.3098004012081958	0.4413131743966236	0.9315954930819704	0.9749300572732916	0.8281736414263865	0.8403019990791891
1.8099999999999614	0.3121698732933756	0.4407672374213258	0.930413381737034	0.9713647999025667	0.8223088506718769	0.8345998281355994
1.8199999999999594	0.3146302986742162	0.4401648149905737	0.9291724797746737	0.967575840048769	0.8164235993563026	0.828878529151835
1.829999999999961	0.3171745607159079	0.4395066943788978	0.9278729196685972	0.9635674124526974	0.810525034795608	0.8231450117855371
1.839999999999959	0.3197955909655189	0.438793843586365	0.9265149377292944	0.9593441443896192	0.8046204477789296	0.8174062886026863
1.8499999999999606	0.3224863809899018	0.4380274048690381	0.9250988741310152	0.9549110432522624	0.7987172624509901	0.8116694653073331
1.8599999999999586	0.3252399939581383	0.4372086879077664	0.9236251726824996	0.950273483358306	0.7928230257553186	0.8059417306833656
1.8699999999999601	0.3280495759519667	0.4363391626440327	0.9220943803286952	0.9454371920271932	0.7869453964440555	0.800230346254821
1.8799999999999581	0.3309083669870789	0.4354204518114938	0.9205071463737284	0.9404082349726204	0.7810921336618857	0.7945426356716132
1.8899999999999597	0.3338097117282101	0.4344543231914472	0.9188642214191428	0.935193001058497	0.7752710851142621	0.7888859738283971
1.8999999999999577	0.3367470698809331	0.4334426816198059	0.9171664560157664	0.929798186466738	0.7694901748324262	0.7832677757248516
1.9099999999999593	0.3397140262435108	0.4323875607725559	0.9154147990311812	0.9242307783250832	0.7637573905491095	0.7776954850757737
1.9199999999999573	0.3427043004026276	0.431291114756138	0.9136102957376	0.91849803784249	0.7580807706994268	0.7721765626798249
1.9299999999999589	0.3457117560575003	0.4301556095290934	0.9117540856279384	0.9126074829981078	0.7524683910621158	0.7667184745563532
1.9399999999999569	0.3487304099571164	0.4289834141813285	0.9098473999702202	0.9065668708283984	0.7469283510573161	0.761328679862049
1.9499999999999584	0.3517544404356369	0.4277769920973473	0.9078915591122412	0.9003841793551308	0.7414687597184214	0.7560146186007138
1.9599999999999564	0.3547781955308899	0.4265388920293127	0.9058879695486082	0.8940675891954125	0.7360977213565985	0.7507836991411306
1.969999999999958	0.3577962006710923	0.4252717391051691	0.903838120762162	0.8876254648935556	0.7308233209371763	0.7456432855593366
1.979999999999956	0.3608031659146616	0.4239782257961011	0.9017435818515028	0.8810663360139797	0.7256536091879177	0.7406006848220323
1.9899999999999576	0.3637939927289464	0.4226611028667587	0.8996059979568353	0.8743988780338325	0.7205965874610574	0.735663133830029
1.9999999999999556	0.3667637802942279	0.4213231703307718	0.8974270864974541	0.8676318930732564	0.7156601923738227	0.7308377863421616
2.009999999999957	0.3697078313211266	0.419967268433164	0.8952086332344044	0.8607742905002638	0.7108522802550674	0.7261316998030737
2.019999999999955	0.3726216573707046	0.4185962686802846	0.8929524881718448	0.8538350674463798	0.7061806114279133	0.7215518220988382
2.0299999999999567	0.3755009836677934	0.4172130649367016	0.8906605613096746	0.8468232892689718	0.7016528343600555	0.7171049782661808
2.0399999999999547	0.3783417533985493	0.4158205646075427	0.8883348182587891	0.8397480699966762	0.6972764697150885	0.7127978571815542
2.0499999999999563	0.3811401314834841	0.4144216799242797	0.8859772757293178	0.8326185527945832	0.6930588943402275	0.7086369982580328
2.0599999999999543	0.3838925078172244	0.4130193193518869	0.8835899969019334	0.8254438904863829	0.6890073252282714	0.7046287781794724
2.069999999999956	0.3865954999662476	0.4116163791354051	0.8811750866928627	0.8182332261709857	0.6851288034945983	0.7007793977040749
2.079999999999954	0.389245955316043	0.4102157350034124	0.8787346869243362	0.8109956739715026	0.6814301784129483	0.6970948685722403
2.0899999999999554	0.3918409526592523	0.4088202340451209	0.8762709714126407	0.80374029995455	0.6779180915559366	0.6935810005554336
2.0999999999999535	0.3943778032168893	0.4074326867766615	0.8737861409858523	0.7964761032580449	0.6745989610873276	0.6902433886829528
2.109999999999955	0.3968540510854943	0.4060558594111882	0.8712824184426639	0.7892119974656877	0.6714789662534695	0.6870874006847759
2.119999999999953	0.3992674731047108	0.4046924663467934	0.8687620434635941	0.7819567922660402	0.668564032121407	0.6841181646877704
2.1299999999999546	0.4016160781424784	0.4033451628856383	0.8662272674870353	0.7747191754336477	0.665859814611347	0.681340557203183
2.1399999999999526	0.4038981057981977	0.4020165381973177	0.8636803485636683	0.7675076951692176	0.6633716858712615	0.6787591914434293
2.149999999999954	0.4061120245271959	0.4007091085388916	0.8611235462037431	0.7603307428355488	0.661104720041255	0.6763784060063802
2.159999999999952	0.4082565291927306	0.3994253107432163	0.8585591162323535	0.7531965361258807	0.6590636794546619	0.6742022539642883
